<svg width="24" height="24" viewBox="0 0 24 24" fill="none" xmlns="http://www.w3.org/2000/svg">
<path d="M23.5594 7.06082L19.0601 11.5595C18.4742 12.1453 17.5228 12.1453 16.937 11.5595C16.3511 10.9737 16.3511 10.0225 16.937 9.43669L18.8773 7.50132H1.5033C0.673729 7.50132 0.0035151 6.8312 0.0035151 6.00176C0.0035151 5.17231 0.673729 4.5022 1.5033 4.5022H18.8773L16.937 2.56214C16.3511 1.97637 16.3511 1.02509 16.937 0.439324C17.5228 -0.146441 18.4742 -0.146441 19.0601 0.439324L23.5594 4.93801C24.1453 5.52377 24.1453 6.47506 23.5594 7.06082ZM4.93873 23.556L0.439389 19.0573C-0.146463 18.4715 -0.146463 17.5203 0.439389 16.9345L4.93873 12.4358C5.52458 11.85 6.476 11.85 7.06186 12.4358C7.64771 13.0216 7.64771 13.9729 7.06186 14.5586L5.1262 16.4987H22.5002C23.3298 16.4987 24 17.1688 24 17.9982C24 18.8277 23.3298 19.4978 22.5002 19.4978H5.1262L7.06654 21.4379C7.65239 22.0236 7.65239 22.9749 7.06654 23.5607C6.48069 24.1464 5.52927 24.1464 4.94342 23.5607L4.93873 23.556Z" fill="#7D7D7D"/>
</svg>
